<svg xmlns="http://www.w3.org/2000/svg" width="311" height="64" viewBox="0 0 311 64">
  <g id="Group_1" data-name="Group 1" transform="translate(-70 -47)">
    <g id="Page-1" transform="translate(68 45)">
      <g id="tabler">
        <g id="logo" transform="translate(2 2)">
          <g id="Group">
            <path id="Shape" d="M62.611,14.2A17.6,17.6,0,0,0,49.8,1.391a114.585,114.585,0,0,0-35.6,0A17.6,17.6,0,0,0,1.391,14.2a114.577,114.577,0,0,0,0,35.6A17.6,17.6,0,0,0,14.2,62.609a114.582,114.582,0,0,0,35.6,0A17.6,17.6,0,0,0,62.611,49.8,114.7,114.7,0,0,0,62.611,14.2Z" fill="#2d89ef"/>
            <path id="Path" d="M31.327,34.329A35.68,35.68,0,0,1,20.237,45.3a4.816,4.816,0,0,1-4.78.123,4.613,4.613,0,0,1-.09-8.107,24.318,24.318,0,0,0,6.088-5.337,27.7,27.7,0,0,0-6.088-5.294,4.624,4.624,0,0,1-1.653-6.4,4.808,4.808,0,0,1,6.523-1.622A35.664,35.664,0,0,1,31.327,29.547,4.581,4.581,0,0,1,31.327,34.329Z" fill="#fff" fill-rule="evenodd"/>
            <path id="Path-2" data-name="Path" d="M47.2,44H35.8c-2.111,0-3.8-1.02-3.8-3s1.71-3,3.8-3H47.2c2.111,0,3.8,1.02,3.8,3S49.29,44,47.2,44Z" fill="#fff" fill-rule="evenodd"/>
          </g>
          <path id="tabler-2" data-name="tabler" d="M103.784,44.1a1.6,1.6,0,0,1,1.224.648,2.537,2.537,0,0,1,.552,1.7,2.565,2.565,0,0,1-1.416,2.184,5.883,5.883,0,0,1-3.192.888,9.305,9.305,0,0,1-5.016-1.272q-2.04-1.272-2.04-5.4V29.6H91.688A2.625,2.625,0,0,1,89,26.912a2.469,2.469,0,0,1,.768-1.848,2.65,2.65,0,0,1,1.92-.744H93.9V21.248a2.87,2.87,0,0,1,2.928-2.928,2.7,2.7,0,0,1,2.016.84,2.878,2.878,0,0,1,.816,2.088V24.32h3.408a2.625,2.625,0,0,1,2.688,2.688,2.469,2.469,0,0,1-.768,1.848,2.65,2.65,0,0,1-1.92.744H99.656V42.608a1.837,1.837,0,0,0,.528,1.464,2.129,2.129,0,0,0,1.44.456,4.119,4.119,0,0,0,1.056-.192A2.868,2.868,0,0,1,103.784,44.1ZM131.816,23.36a2.8,2.8,0,0,1,2.064.816,2.858,2.858,0,0,1,.816,2.112v20.3a2.879,2.879,0,0,1-.816,2.088,2.756,2.756,0,0,1-2.064.84,2.718,2.718,0,0,1-2.04-.816,3.019,3.019,0,0,1-.84-2.064A10.408,10.408,0,0,1,121.4,50a10.974,10.974,0,0,1-6-1.7,11.947,11.947,0,0,1-4.248-4.728,14.754,14.754,0,0,1-1.56-6.864,15.092,15.092,0,0,1,1.536-6.888,11.8,11.8,0,0,1,4.2-4.752,10.69,10.69,0,0,1,5.88-1.7,11.118,11.118,0,0,1,4.32.84,11.345,11.345,0,0,1,3.408,2.136v-.048a2.878,2.878,0,0,1,.816-2.088A2.756,2.756,0,0,1,131.816,23.36Zm-9.7,21.36a6.41,6.41,0,0,0,5.088-2.28,8.466,8.466,0,0,0,1.968-5.736,8.558,8.558,0,0,0-1.968-5.76,6.717,6.717,0,0,0-10.128,0,8.558,8.558,0,0,0-1.968,5.76,8.531,8.531,0,0,0,1.944,5.736A6.339,6.339,0,0,0,122.12,44.72Zm32.112-21.36a10.974,10.974,0,0,1,6,1.7,11.947,11.947,0,0,1,4.248,4.728,14.754,14.754,0,0,1,1.56,6.864,15.092,15.092,0,0,1-1.536,6.888,11.8,11.8,0,0,1-4.2,4.752,10.691,10.691,0,0,1-5.88,1.7,10.293,10.293,0,0,1-4.344-.936,11.517,11.517,0,0,1-3.384-2.28v.288a2.879,2.879,0,0,1-.816,2.088,2.756,2.756,0,0,1-2.064.84,2.8,2.8,0,0,1-2.064-.816,2.858,2.858,0,0,1-.816-2.112V16.928a2.878,2.878,0,0,1,.816-2.088,2.956,2.956,0,0,1,4.128,0,2.879,2.879,0,0,1,.816,2.088V26.96a9.938,9.938,0,0,1,3.216-2.52A9.2,9.2,0,0,1,154.232,23.36Zm-.72,21.36a6.33,6.33,0,0,0,5.04-2.3,8.558,8.558,0,0,0,1.968-5.76,8.531,8.531,0,0,0-1.944-5.736,6.339,6.339,0,0,0-5.064-2.28,6.41,6.41,0,0,0-5.088,2.28,8.466,8.466,0,0,0-1.968,5.736,8.558,8.558,0,0,0,1.968,5.76A6.381,6.381,0,0,0,153.512,44.72Zm23.568,1.872a2.87,2.87,0,0,1-2.928,2.928,2.7,2.7,0,0,1-2.016-.84,2.878,2.878,0,0,1-.816-2.088V16.928A2.87,2.87,0,0,1,174.248,14a2.7,2.7,0,0,1,2.016.84,2.879,2.879,0,0,1,.816,2.088ZM206.36,36.08a2.465,2.465,0,0,1-.912,1.872,3.054,3.054,0,0,1-2.016.72h-15.84a7.238,7.238,0,0,0,2.64,4.44,7.381,7.381,0,0,0,4.656,1.608,10.319,10.319,0,0,0,3.072-.36,8,8,0,0,0,1.752-.768q.648-.408.888-.552a3.662,3.662,0,0,1,1.632-.432,2.357,2.357,0,0,1,1.728.72,2.3,2.3,0,0,1,.72,1.68,3,3,0,0,1-1.344,2.352,11.468,11.468,0,0,1-3.6,1.872,14.882,14.882,0,0,1-11.592-.912,11.727,11.727,0,0,1-4.632-4.632,13.507,13.507,0,0,1-1.632-6.648,14.717,14.717,0,0,1,1.728-7.248,12.269,12.269,0,0,1,4.56-4.776,11.786,11.786,0,0,1,6.048-1.656,11.213,11.213,0,0,1,5.976,1.728,12.917,12.917,0,0,1,4.488,4.656A12.516,12.516,0,0,1,206.36,36.08Zm-12.144-7.44q-5.568,0-6.576,5.232h12.576v-.336a4.962,4.962,0,0,0-1.968-3.456A6.229,6.229,0,0,0,194.216,28.64ZM224.5,23.36a3.671,3.671,0,0,1,2.424.816,2.433,2.433,0,0,1,.984,1.92,2.974,2.974,0,0,1-.768,2.232,2.532,2.532,0,0,1-1.824.744,4.789,4.789,0,0,1-1.632-.336q-.144-.048-.648-.192a3.915,3.915,0,0,0-1.08-.144,4.266,4.266,0,0,0-2.4.768,5.6,5.6,0,0,0-1.9,2.328,8.571,8.571,0,0,0-.744,3.72V46.592a2.879,2.879,0,0,1-.816,2.088,2.956,2.956,0,0,1-4.128,0,2.879,2.879,0,0,1-.816-2.088V26.768a2.879,2.879,0,0,1,.816-2.088,2.956,2.956,0,0,1,4.128,0,2.879,2.879,0,0,1,.816,2.088v.624a7.272,7.272,0,0,1,3.168-3A9.74,9.74,0,0,1,224.5,23.36Z" fill="#4a4a4a" fill-rule="evenodd"/>
        </g>
      </g>
    </g>
    <text id="icons" transform="translate(342 97)" font-size="24" font-family="SourceSansPro-Bold, Source Sans Pro" font-weight="700" letter-spacing="0.12em" opacity="0.49"><tspan x="-38.772" y="0">ICONS</tspan></text>
  </g>
</svg>
